<svg xmlns="http://www.w3.org/2000/svg" width="53.382" height="48.043" viewBox="0 0 53.382 48.043">
  <path id="Indoor" d="M28.691,3S12.18,17.253,2.953,24.972A2.78,2.78,0,0,0,2,27.022a2.667,2.667,0,0,0,2.669,2.669h5.338V48.374a2.667,2.667,0,0,0,2.669,2.669h8.007a2.668,2.668,0,0,0,2.669-2.669V37.7H34.029V48.374A2.668,2.668,0,0,0,36.7,51.043h8.007a2.667,2.667,0,0,0,2.669-2.669V29.691h5.338a2.667,2.667,0,0,0,2.669-2.669,2.615,2.615,0,0,0-1.022-2.05C45.2,17.253,28.691,3,28.691,3Z" transform="translate(-2 -3)" fill="#028a8f"/>
</svg>
