<svg xmlns="http://www.w3.org/2000/svg" width="53.382" height="48.997" viewBox="0 0 53.382 48.997">
  <g id="Low-Light" transform="translate(0 0.542)">
    <g id="Group_35" data-name="Group 35" transform="translate(15.675 36.91)">
      <g id="Group_34" data-name="Group 34">
        <path id="Path_112" data-name="Path 112" d="M151,390v1.419a4.325,4.325,0,0,0,3.281,4.035,7.956,7.956,0,0,0,15.468,0,4.324,4.324,0,0,0,3.281-4.035V390Z" transform="translate(-151.001 -390.003)" fill="#028a8f"/>
      </g>
    </g>
    <g id="Group_37" data-name="Group 37" transform="translate(7.974 0)">
      <g id="Group_36" data-name="Group 36">
        <path id="Path_113" data-name="Path 113" d="M90.7.383C83.662,1.721,77.929,6.923,76.436,13.327a15.962,15.962,0,0,0,4.294,15.01,10.513,10.513,0,0,1,2.925,5.734H105.8a10.954,10.954,0,0,1,3.011-5.827,16.249,16.249,0,0,0,4.738-11.208C113.545,6.23,102.551-1.887,90.7.383Zm14.939,18.072a1.494,1.494,0,0,1-1.56-1.42c0-4.7-4.2-8.518-9.361-8.518a1.494,1.494,0,0,1-1.56-1.42,1.494,1.494,0,0,1,1.56-1.42c6.882,0,12.48,5.095,12.48,11.357A1.494,1.494,0,0,1,105.642,18.455Z" transform="translate(-76.005 0)" fill="none" stroke="#028a8f" stroke-width="1"/>
      </g>
    </g>
    <g id="Group_39" data-name="Group 39" transform="translate(0 17.035)">
      <g id="Group_38" data-name="Group 38">
        <path id="Path_114" data-name="Path 114" d="M4.722,180H1.575a1.427,1.427,0,1,0,0,2.839H4.722a1.427,1.427,0,1,0,0-2.839Z" transform="translate(-0.001 -180.003)" fill="#028a8f"/>
      </g>
    </g>
    <g id="Group_41" data-name="Group 41" transform="translate(0.461 7.514)">
      <g id="Group_40" data-name="Group 40">
        <path id="Path_115" data-name="Path 115" d="M9.307,81.82,7.082,79.813a1.7,1.7,0,0,0-2.225,0,1.323,1.323,0,0,0,0,2.007l2.225,2.007a1.7,1.7,0,0,0,2.225,0A1.323,1.323,0,0,0,9.307,81.82Z" transform="translate(-4.396 -79.397)" fill="#028a8f"/>
      </g>
    </g>
    <g id="Group_43" data-name="Group 43" transform="translate(0.461 24.549)">
      <g id="Group_42" data-name="Group 42">
        <path id="Path_116" data-name="Path 116" d="M9.307,259.813a1.7,1.7,0,0,0-2.225,0l-2.225,2.007a1.323,1.323,0,0,0,0,2.007,1.7,1.7,0,0,0,2.225,0l2.225-2.007A1.323,1.323,0,0,0,9.307,259.813Z" transform="translate(-4.396 -259.397)" fill="#028a8f"/>
      </g>
    </g>
    <g id="Group_45" data-name="Group 45" transform="translate(47.087 17.035)">
      <g id="Group_44" data-name="Group 44">
        <path id="Path_117" data-name="Path 117" d="M456.722,180h-3.147a1.427,1.427,0,1,0,0,2.839h3.147a1.427,1.427,0,1,0,0-2.839Z" transform="translate(-452.001 -180.003)" fill="#028a8f"/>
      </g>
    </g>
    <g id="Group_47" data-name="Group 47" transform="translate(47.548 7.514)">
      <g id="Group_46" data-name="Group 46">
        <path id="Path_118" data-name="Path 118" d="M461.307,79.814a1.7,1.7,0,0,0-2.225,0l-2.225,2.007a1.323,1.323,0,0,0,0,2.007,1.7,1.7,0,0,0,2.225,0l2.225-2.007A1.323,1.323,0,0,0,461.307,79.814Z" transform="translate(-456.396 -79.398)" fill="#028a8f"/>
      </g>
    </g>
    <g id="Group_49" data-name="Group 49" transform="translate(47.548 24.549)">
      <g id="Group_48" data-name="Group 48">
        <path id="Path_119" data-name="Path 119" d="M461.307,261.821l-2.225-2.007a1.7,1.7,0,0,0-2.225,0,1.323,1.323,0,0,0,0,2.007l2.225,2.007a1.7,1.7,0,0,0,2.225,0A1.323,1.323,0,0,0,461.307,261.821Z" transform="translate(-456.396 -259.398)" fill="#028a8f"/>
      </g>
    </g>
  </g>
</svg>
